<svg xmlns="http://www.w3.org/2000/svg" width="352" height="225" viewBox="0 0 352 225"><g transform="translate(116.22 30) scale(1.2000)"><path d="M43.09,26.76 Q50.00,21.00 56.91,26.76 L73.09,40.24 Q80.00,46.00 80.00,55.00 L80.00,73.00 Q80.00,82.00 71.00,82.00 L29.00,82.00 Q20.00,82.00 20.00,73.00 L20.00,55.00 Q20.00,46.00 26.91,40.24 L43.09,26.76 Z" fill="none" stroke="#0F5C5A" stroke-width="7" stroke-linejoin="round" stroke-linecap="round"/></g><g transform="translate(40.0 200)" fill="#0F5C5A"><g transform="translate(0.000 0.000) scale(0.04000 -0.04000)"><path d="M189.0 603V399H429.0V306H189.0V93H459.0V0H75.0V696H459.0V603ZM1198.0 142H907.0L857.0 0H738.0L987.0 696H1119.0L1368.0 0H1248.0ZM1166.0 235 1053.0 558 939.0 235ZM1639.0 192H1761.0Q1765.0 147 1796.5 118.0Q1828.0 89 1885.0 89Q1944.0 89 1977.0 117.5Q2010.0 146 2010.0 191Q2010.0 226 1989.5 248.0Q1969.0 270 1938.5 282.0Q1908.0 294 1854.0 308Q1786.0 326 1743.5 344.5Q1701.0 363 1671.0 402.0Q1641.0 441 1641.0 506Q1641.0 566 1671.0 611.0Q1701.0 656 1755.0 680.0Q1809.0 704 1880.0 704Q1981.0 704 2045.5 653.5Q2110.0 603 2117.0 515H1991.0Q1988.0 553 1955.0 580.0Q1922.0 607 1868.0 607Q1819.0 607 1788.0 582.0Q1757.0 557 1757.0 510Q1757.0 478 1776.5 457.5Q1796.0 437 1826.0 425.0Q1856.0 413 1908.0 399Q1977.0 380 2020.5 361.0Q2064.0 342 2094.5 302.5Q2125.0 263 2125.0 197Q2125.0 144 2096.5 97.0Q2068.0 50 2013.5 21.5Q1959.0 -7 1885.0 -7Q1815.0 -7 1759.0 17.5Q1703.0 42 1671.0 87.0Q1639.0 132 1639.0 192ZM2955.0 695 2725.0 252V0H2611.0V252L2380.0 695H2507.0L2668.0 354L2829.0 695Z"/></g><g transform="translate(146.000 0.000) scale(0.04000 -0.04000)"><path d="M436.0 0 276.0 278H189.0V0H75.0V695H315.0Q395.0 695 450.5 667.0Q506.0 639 533.5 592.0Q561.0 545 561.0 487Q561.0 419 521.5 363.5Q482.0 308 400.0 288L572.0 0ZM189.0 369H315.0Q379.0 369 411.5 401.0Q444.0 433 444.0 487Q444.0 541 412.0 571.5Q380.0 602 315.0 602H189.0ZM1001.0 603V399H1241.0V306H1001.0V93H1271.0V0H887.0V696H1271.0V603ZM2162.0 0H2048.0L1705.0 519V0H1591.0V696H1705.0L2048.0 178V696H2162.0ZM2941.0 695V602H2756.0V0H2642.0V602H2456.0V695Z"/></g></g></svg>