<svg xmlns="http://www.w3.org/2000/svg" width="476" height="148" viewBox="0 0 476 148"><g transform="translate(26 26) scale(0.9600)"><path d="M43.09,26.76 Q50.00,21.00 56.91,26.76 L73.09,40.24 Q80.00,46.00 80.00,55.00 L80.00,73.00 Q80.00,82.00 71.00,82.00 L29.00,82.00 Q20.00,82.00 20.00,73.00 L20.00,55.00 Q20.00,46.00 26.91,40.24 L43.09,26.76 Z" fill="none" stroke="#FFFFFF" stroke-width="7" stroke-linejoin="round" stroke-linecap="round"/></g><g transform="translate(144 89.64)" fill="#FFFFFF"><g transform="translate(0.000 0.000) scale(0.04600 -0.04600)"><path d="M189.0 603V399H429.0V306H189.0V93H459.0V0H75.0V696H459.0V603ZM1178.0 142H887.0L837.0 0H718.0L967.0 696H1099.0L1348.0 0H1228.0ZM1146.0 235 1033.0 558 919.0 235ZM1599.0 192H1721.0Q1725.0 147 1756.5 118.0Q1788.0 89 1845.0 89Q1904.0 89 1937.0 117.5Q1970.0 146 1970.0 191Q1970.0 226 1949.5 248.0Q1929.0 270 1898.5 282.0Q1868.0 294 1814.0 308Q1746.0 326 1703.5 344.5Q1661.0 363 1631.0 402.0Q1601.0 441 1601.0 506Q1601.0 566 1631.0 611.0Q1661.0 656 1715.0 680.0Q1769.0 704 1840.0 704Q1941.0 704 2005.5 653.5Q2070.0 603 2077.0 515H1951.0Q1948.0 553 1915.0 580.0Q1882.0 607 1828.0 607Q1779.0 607 1748.0 582.0Q1717.0 557 1717.0 510Q1717.0 478 1736.5 457.5Q1756.0 437 1786.0 425.0Q1816.0 413 1868.0 399Q1937.0 380 1980.5 361.0Q2024.0 342 2054.5 302.5Q2085.0 263 2085.0 197Q2085.0 144 2056.5 97.0Q2028.0 50 1973.5 21.5Q1919.0 -7 1845.0 -7Q1775.0 -7 1719.0 17.5Q1663.0 42 1631.0 87.0Q1599.0 132 1599.0 192ZM2895.0 695 2665.0 252V0H2551.0V252L2320.0 695H2447.0L2608.0 354L2769.0 695Z"/></g><g transform="translate(164.220 0.000) scale(0.04600 -0.04600)"><path d="M436.0 0 276.0 278H189.0V0H75.0V695H315.0Q395.0 695 450.5 667.0Q506.0 639 533.5 592.0Q561.0 545 561.0 487Q561.0 419 521.5 363.5Q482.0 308 400.0 288L572.0 0ZM189.0 369H315.0Q379.0 369 411.5 401.0Q444.0 433 444.0 487Q444.0 541 412.0 571.5Q380.0 602 315.0 602H189.0ZM981.0 603V399H1221.0V306H981.0V93H1251.0V0H867.0V696H1251.0V603ZM2122.0 0H2008.0L1665.0 519V0H1551.0V696H1665.0L2008.0 178V696H2122.0ZM2881.0 695V602H2696.0V0H2582.0V602H2396.0V695Z"/></g></g></svg>