<svg xmlns="http://www.w3.org/2000/svg" width="100" height="100" viewBox="0 0 100 100"><path d="M26,2 H74 A24,24 0 0 1 98,26 V74 A24,24 0 0 1 74,98 H26 A24,24 0 0 1 2,74 V26 A24,24 0 0 1 26,2 Z" fill="#0F5C5A"/><path d="M43.09,26.76 Q50.00,21.00 56.91,26.76 L73.09,40.24 Q80.00,46.00 80.00,55.00 L80.00,73.00 Q80.00,82.00 71.00,82.00 L29.00,82.00 Q20.00,82.00 20.00,73.00 L20.00,55.00 Q20.00,46.00 26.91,40.24 L43.09,26.76 Z" fill="none" stroke="#FFFFFF" stroke-width="7" stroke-linejoin="round" stroke-linecap="round"/></svg>